<svg width="32" height="32" viewBox="0 0 32 32" fill="none" xmlns="http://www.w3.org/2000/svg">
<g clip-path="url(#clip0_163_107)">
<path d="M26.7333 14.6665H5.26667C4.56711 14.6665 4 15.2336 4 15.9332V16.0665C4 16.7661 4.56711 17.3332 5.26667 17.3332H26.7333C27.4329 17.3332 28 16.7661 28 16.0665V15.9332C28 15.2336 27.4329 14.6665 26.7333 14.6665Z" fill="#D3B365"/>
<path d="M26.7333 21.3335H5.26667C4.56711 21.3335 4 21.9006 4 22.6002V22.7335C4 23.4331 4.56711 24.0002 5.26667 24.0002H26.7333C27.4329 24.0002 28 23.4331 28 22.7335V22.6002C28 21.9006 27.4329 21.3335 26.7333 21.3335Z" fill="#D3B365"/>
<path d="M26.7333 8H5.26667C4.56711 8 4 8.56711 4 9.26667V9.4C4 10.0996 4.56711 10.6667 5.26667 10.6667H26.7333C27.4329 10.6667 28 10.0996 28 9.4V9.26667C28 8.56711 27.4329 8 26.7333 8Z" fill="#D3B365"/>
</g>
<defs>
<clipPath id="clip0_163_107">
<rect width="32" height="32" fill="white"/>
</clipPath>
</defs>
</svg>
