<svg width="24" height="24" viewBox="0 0 24 24" fill="none" xmlns="http://www.w3.org/2000/svg">
<path d="M16 10.9999H10.34L11.59 9.68989C11.773 9.4976 11.8721 9.2405 11.8656 8.97514C11.859 8.70977 11.7473 8.45788 11.555 8.27489C11.3627 8.09189 11.1056 7.99277 10.8403 7.99933C10.5749 8.00589 10.323 8.1176 10.14 8.30989L7.28 11.3099C7.24662 11.3508 7.21652 11.3942 7.19 11.4399C7.14384 11.4972 7.10674 11.5613 7.08 11.6299C7.04485 11.7193 7.02458 11.8139 7.02 11.9099L7 11.9999C7.00158 12.1306 7.02876 12.2597 7.08 12.3799C7.12874 12.4991 7.20005 12.6077 7.29 12.6999L10.29 15.6999C10.383 15.7936 10.4936 15.868 10.6154 15.9188C10.7373 15.9695 10.868 15.9957 11 15.9957C11.132 15.9957 11.2627 15.9695 11.3846 15.9188C11.5064 15.868 11.617 15.7936 11.71 15.6999C11.8037 15.6069 11.8781 15.4963 11.9289 15.3745C11.9797 15.2526 12.0058 15.1219 12.0058 14.9899C12.0058 14.8579 11.9797 14.7272 11.9289 14.6053C11.8781 14.4834 11.8037 14.3728 11.71 14.2799L10.41 12.9999H16C16.2652 12.9999 16.5196 12.8945 16.7071 12.707C16.8946 12.5195 17 12.2651 17 11.9999C17 11.7347 16.8946 11.4803 16.7071 11.2928C16.5196 11.1052 16.2652 10.9999 16 10.9999Z" fill="#C29621"/>
<path d="M12 2C10.0222 2 8.08879 2.58649 6.4443 3.6853C4.79981 4.78412 3.51809 6.3459 2.76121 8.17317C2.00433 10.0004 1.8063 12.0111 2.19215 13.9509C2.578 15.8907 3.53041 17.6725 4.92894 19.0711C6.32746 20.4696 8.10929 21.422 10.0491 21.8079C11.9889 22.1937 13.9996 21.9957 15.8268 21.2388C17.6541 20.4819 19.2159 19.2002 20.3147 17.5557C21.4135 15.9112 22 13.9778 22 12C22 10.6868 21.7413 9.38642 21.2388 8.17317C20.7363 6.95991 19.9997 5.85752 19.0711 4.92893C18.1425 4.00035 17.0401 3.26375 15.8268 2.7612C14.6136 2.25866 13.3132 2 12 2ZM12 20C10.4178 20 8.87104 19.5308 7.55544 18.6518C6.23985 17.7727 5.21447 16.5233 4.60897 15.0615C4.00347 13.5997 3.84504 11.9911 4.15372 10.4393C4.4624 8.88743 5.22433 7.46197 6.34315 6.34315C7.46197 5.22433 8.88743 4.4624 10.4393 4.15372C11.9911 3.84504 13.5997 4.00346 15.0615 4.60896C16.5233 5.21447 17.7727 6.23984 18.6518 7.55544C19.5308 8.87103 20 10.4177 20 12C20 14.1217 19.1572 16.1566 17.6569 17.6569C16.1566 19.1571 14.1217 20 12 20Z" fill="#C29621"/>
</svg>
