<svg width="24" height="24" viewBox="0 0 24 24" fill="none" xmlns="http://www.w3.org/2000/svg">
<path d="M8 13.0001L13.66 13.0001L12.41 14.3101C12.227 14.5024 12.1279 14.7595 12.1344 15.0249C12.141 15.2902 12.2527 15.5421 12.445 15.7251C12.6373 15.9081 12.8944 16.0072 13.1597 16.0007C13.4251 15.9941 13.677 15.8824 13.86 15.6901L16.72 12.6901C16.7534 12.6492 16.7835 12.6058 16.81 12.5601C16.8562 12.5028 16.8933 12.4387 16.92 12.3701C16.9552 12.2807 16.9754 12.1861 16.98 12.0901L17 12.0001C16.9984 11.8694 16.9712 11.7403 16.92 11.6201C16.8713 11.5009 16.8 11.3923 16.71 11.3001L13.71 8.30011C13.617 8.20639 13.5064 8.13199 13.3846 8.08122C13.2627 8.03045 13.132 8.00432 13 8.00432C12.868 8.00432 12.7373 8.03045 12.6154 8.08122C12.4936 8.13199 12.383 8.20639 12.29 8.30011C12.1963 8.39308 12.1219 8.50368 12.0711 8.62554C12.0203 8.7474 11.9942 8.8781 11.9942 9.01011C11.9942 9.14213 12.0203 9.27283 12.0711 9.39469C12.1219 9.51655 12.1963 9.62715 12.29 9.72011L13.59 11.0001L8 11.0001C7.73478 11.0001 7.48043 11.1055 7.29289 11.293C7.10536 11.4805 7 11.7349 7 12.0001C7 12.2653 7.10536 12.5197 7.29289 12.7072C7.48043 12.8948 7.73478 13.0001 8 13.0001Z" fill="#C29621"/>
<path d="M12 22C13.9778 22 15.9112 21.4135 17.5557 20.3147C19.2002 19.2159 20.4819 17.6541 21.2388 15.8268C21.9957 13.9996 22.1937 11.9889 21.8078 10.0491C21.422 8.10929 20.4696 6.32746 19.0711 4.92893C17.6725 3.53041 15.8907 2.578 13.9509 2.19215C12.0111 1.80629 10.0004 2.00433 8.17316 2.7612C6.3459 3.51808 4.78411 4.79981 3.6853 6.4443C2.58649 8.08879 2 10.0222 2 12C2 13.3132 2.25865 14.6136 2.7612 15.8268C3.26375 17.0401 4.00034 18.1425 4.92893 19.0711C5.85751 19.9997 6.9599 20.7362 8.17316 21.2388C9.38642 21.7413 10.6868 22 12 22ZM12 4C13.5822 4 15.129 4.46919 16.4446 5.34824C17.7602 6.22729 18.7855 7.47672 19.391 8.93853C19.9965 10.4003 20.155 12.0089 19.8463 13.5607C19.5376 15.1126 18.7757 16.538 17.6568 17.6569C16.538 18.7757 15.1126 19.5376 13.5607 19.8463C12.0089 20.155 10.4003 19.9965 8.93853 19.391C7.47672 18.7855 6.22729 17.7602 5.34824 16.4446C4.46919 15.129 4 13.5823 4 12C4 9.87827 4.84285 7.84344 6.34314 6.34315C7.84343 4.84285 9.87826 4 12 4Z" fill="#C29621"/>
</svg>
